<svg width="496" height="478" viewBox="0 0 496 478" fill="none" xmlns="http://www.w3.org/2000/svg">
<path d="M485 33.9999C436.067 43.5147 388.933 60.0594 340.111 70.111C262.392 86.1119 184.687 102.295 106.667 116.778C100.373 117.946 13.7357 136.967 11.4445 130.667C9.49482 125.305 23.3229 114.767 25.8889 112.222C39.4181 98.8038 53.6212 87.5371 69.3334 76.7777C102.555 54.0278 136.459 34.6777 173.667 19.2221C179.204 16.9221 207.372 4.23902 208.778 16.8888C213.125 56.0127 209 97.9228 209 137.222C209 205.212 204.722 272.67 203.222 340.555C202.39 378.227 198.974 419.119 203.444 456.667C205.99 478.05 222.285 460.214 228.778 452.222C256.977 417.515 285.796 380.797 312 344C335.5 311 352 291 375.667 258.889C393.41 234.815 349.699 261.033 344.111 263.555C306.64 280.471 270.939 298.876 230.556 308C180.974 319.202 130.792 328.041 81 338" stroke="white" stroke-width="21" stroke-linecap="round"/>
</svg>
